<?xml version="1.0" encoding="UTF-8" standalone="no"?>
<!DOCTYPE svg PUBLIC "-//W3C//DTD SVG 1.1//EN"
 "http://www.w3.org/Graphics/SVG/1.1/DTD/svg11.dtd">
<!-- Generated by graphviz version 2.43.0 (0)
 -->
<!-- Title: %3 Pages: 1 -->
<svg width="946pt" height="116pt"
 viewBox="0.00 0.00 946.19 116.00" xmlns="http://www.w3.org/2000/svg" xmlns:xlink="http://www.w3.org/1999/xlink">
<g id="graph0" class="graph" transform="scale(1 1) rotate(0) translate(4 112)">
<title>%3</title>
<polygon fill="white" stroke="transparent" points="-4,4 -4,-112 942.19,-112 942.19,4 -4,4"/>
<!-- random&#45;bash&#45;scripts -->
<g id="node1" class="node">
<title>random&#45;bash&#45;scripts</title>
<ellipse fill="none" stroke="black" cx="485.49" cy="-90" rx="105.88" ry="18"/>
<text text-anchor="middle" x="485.49" y="-86.3" font-family="Times,serif" font-size="14.00">random&#45;bash&#45;scripts</text>
</g>
<!-- insertionsort.sh -->
<g id="node2" class="node">
<title>insertionsort.sh</title>
<ellipse fill="none" stroke="black" cx="84.49" cy="-18" rx="84.49" ry="18"/>
<text text-anchor="middle" x="84.49" y="-14.3" font-family="Times,serif" font-size="14.00">insertionsort.sh</text>
</g>
<!-- random&#45;bash&#45;scripts&#45;&gt;insertionsort.sh -->
<g id="edge1" class="edge">
<title>random&#45;bash&#45;scripts&#45;&gt;insertionsort.sh</title>
<path fill="none" stroke="black" d="M413.27,-76.79C350.82,-66.18 258.16,-50.31 177.49,-36 170.71,-34.8 163.64,-33.53 156.58,-32.25"/>
<polygon fill="black" stroke="black" points="156.72,-28.72 146.26,-30.38 155.47,-35.61 156.72,-28.72"/>
</g>
<!-- LICENSE -->
<g id="node3" class="node">
<title>LICENSE</title>
<ellipse fill="none" stroke="black" cx="241.49" cy="-18" rx="54.69" ry="18"/>
<text text-anchor="middle" x="241.49" y="-14.3" font-family="Times,serif" font-size="14.00">LICENSE</text>
</g>
<!-- random&#45;bash&#45;scripts&#45;&gt;LICENSE -->
<g id="edge2" class="edge">
<title>random&#45;bash&#45;scripts&#45;&gt;LICENSE</title>
<path fill="none" stroke="black" d="M434.04,-74.24C391.85,-62.13 332.49,-45.11 290.87,-33.17"/>
<polygon fill="black" stroke="black" points="291.8,-29.79 281.22,-30.4 289.87,-36.52 291.8,-29.79"/>
</g>
<!-- mvall.sh -->
<g id="node4" class="node">
<title>mvall.sh</title>
<ellipse fill="none" stroke="black" cx="364.49" cy="-18" rx="50.09" ry="18"/>
<text text-anchor="middle" x="364.49" y="-14.3" font-family="Times,serif" font-size="14.00">mvall.sh</text>
</g>
<!-- random&#45;bash&#45;scripts&#45;&gt;mvall.sh -->
<g id="edge3" class="edge">
<title>random&#45;bash&#45;scripts&#45;&gt;mvall.sh</title>
<path fill="none" stroke="black" d="M457.12,-72.59C439.6,-62.45 417,-49.37 398.51,-38.68"/>
<polygon fill="black" stroke="black" points="400.21,-35.62 389.81,-33.64 396.71,-41.68 400.21,-35.62"/>
</g>
<!-- noexit.sh -->
<g id="node5" class="node">
<title>noexit.sh</title>
<ellipse fill="none" stroke="black" cx="485.49" cy="-18" rx="53.09" ry="18"/>
<text text-anchor="middle" x="485.49" y="-14.3" font-family="Times,serif" font-size="14.00">noexit.sh</text>
</g>
<!-- random&#45;bash&#45;scripts&#45;&gt;noexit.sh -->
<g id="edge4" class="edge">
<title>random&#45;bash&#45;scripts&#45;&gt;noexit.sh</title>
<path fill="none" stroke="black" d="M485.49,-71.7C485.49,-63.98 485.49,-54.71 485.49,-46.11"/>
<polygon fill="black" stroke="black" points="488.99,-46.1 485.49,-36.1 481.99,-46.1 488.99,-46.1"/>
</g>
<!-- signalcounter.sh -->
<g id="node6" class="node">
<title>signalcounter.sh</title>
<ellipse fill="none" stroke="black" cx="643.49" cy="-18" rx="87.18" ry="18"/>
<text text-anchor="middle" x="643.49" y="-14.3" font-family="Times,serif" font-size="14.00">signalcounter.sh</text>
</g>
<!-- random&#45;bash&#45;scripts&#45;&gt;signalcounter.sh -->
<g id="edge5" class="edge">
<title>random&#45;bash&#45;scripts&#45;&gt;signalcounter.sh</title>
<path fill="none" stroke="black" d="M521.74,-72.94C544.74,-62.75 574.67,-49.49 599.09,-38.67"/>
<polygon fill="black" stroke="black" points="600.77,-41.75 608.5,-34.5 597.94,-35.35 600.77,-41.75"/>
</g>
<!-- text.svg -->
<g id="node7" class="node">
<title>text.svg</title>
<ellipse fill="none" stroke="black" cx="796.49" cy="-18" rx="48.19" ry="18"/>
<text text-anchor="middle" x="796.49" y="-14.3" font-family="Times,serif" font-size="14.00">text.svg</text>
</g>
<!-- random&#45;bash&#45;scripts&#45;&gt;text.svg -->
<g id="edge6" class="edge">
<title>random&#45;bash&#45;scripts&#45;&gt;text.svg</title>
<path fill="none" stroke="black" d="M554.31,-76.27C605.61,-66.38 677.26,-51.74 739.49,-36 743.27,-35.04 747.17,-34 751.08,-32.92"/>
<polygon fill="black" stroke="black" points="752.08,-36.27 760.74,-30.16 750.16,-29.54 752.08,-36.27"/>
</g>
<!-- vis.sh -->
<g id="node8" class="node">
<title>vis.sh</title>
<ellipse fill="none" stroke="black" cx="900.49" cy="-18" rx="37.89" ry="18"/>
<text text-anchor="middle" x="900.49" y="-14.3" font-family="Times,serif" font-size="14.00">vis.sh</text>
</g>
<!-- random&#45;bash&#45;scripts&#45;&gt;vis.sh -->
<g id="edge7" class="edge">
<title>random&#45;bash&#45;scripts&#45;&gt;vis.sh</title>
<path fill="none" stroke="black" d="M577.62,-81C652.67,-73.22 760.97,-59.14 853.49,-36 856.51,-35.25 859.6,-34.37 862.69,-33.42"/>
<polygon fill="black" stroke="black" points="864.05,-36.66 872.45,-30.2 861.86,-30.01 864.05,-36.66"/>
</g>
</g>
</svg>
